<?xml version="1.0" encoding="utf-8"?>
<!-- Generator: Adobe Illustrator 25.4.1, SVG Export Plug-In . SVG Version: 6.00 Build 0)  -->
<svg version="1.1" xmlns="http://www.w3.org/2000/svg" xmlns:xlink="http://www.w3.org/1999/xlink" x="0px" y="0px"
	 viewBox="0 0 500 500" style="enable-background:new 0 0 500 500;" xml:space="preserve">
<style type="text/css">
	.st0{fill:#FFFFFF;}
	.st1{fill:#08183B;}
	.st2{font-family:'Montserrat-ExtraBold';}
	.st3{font-size:39.6292px;}
	.st4{letter-spacing:2;}
	.st5{fill:#00C0EE;}
	.st6{font-family:'Montserrat-Medium';}
	.st7{font-size:12.8417px;}
	.st8{letter-spacing:3;}
	.st9{fill:url(#SVGID_1_);}
	.st10{clip-path:url(#SVGID_00000039114139874978870270000014067141306831548816_);fill:#00D6EE;}
</style>
<g id="BACKGROUND">
	<path class="st0" d="M499,500H1c-0.55,0-1-0.45-1-1V1c0-0.55,0.45-1,1-1h498c0.55,0,1,0.45,1,1v498C500,499.55,499.55,500,499,500z
		"/>
</g>
<g id="OBJECTS">
	<g>
		<text transform="matrix(1 0 0 1 114.8074 312.2159)"><tspan x="0" y="0" class="st1 st2 st3 st4">CLOUD</tspan><tspan x="132.91" y="0" class="st5 st2 st3 st4">TRAVEL</tspan></text>
		<text transform="matrix(1 0 0 1 170.5498 337.0054)" class="st1 st6 st7 st8">TAGLINE GOES HERE</text>
	</g>
	<linearGradient id="SVGID_1_" gradientUnits="userSpaceOnUse" x1="151.4234" y1="195.9162" x2="348.5766" y2="195.9162">
		<stop  offset="0" style="stop-color:#00D6EE"/>
		<stop  offset="1" style="stop-color:#009AE1"/>
	</linearGradient>
	<path class="st9" d="M309.2,171.25c-3.59,0-7.07,0.49-10.37,1.39c-8.7-18.22-27.29-30.81-48.83-30.81
		c-21.54,0-40.13,12.59-48.83,30.81c-3.31-0.9-6.78-1.39-10.37-1.39c-21.75,0-39.37,17.63-39.37,39.37c0,0.61,0.02,1.21,0.05,1.81
		c1.61,33.1,43.58,32.95,90.16-13.04c2.1-2.34,4.29-4.73,6.52-7.1c0,0,0,0,0,0h0h0l-7.82-6.06l-19.85-13.49
		c-0.32-0.21-0.36-0.66-0.09-0.93l2.18-2.19c0.45-0.46,1.13-0.63,1.82-0.47c0,0,27.82,7.55,35.92,10.83
		c10.27-9.62,22.83-17.63,24.41-16.05c1.67,1.67-6.5,14.01-16.11,24.23c3.28,7.78,10.98,36.2,10.98,36.2
		c0.16,0.69-0.02,1.37-0.47,1.82l-2.19,2.18c-0.27,0.27-0.72,0.23-0.93-0.09l-13.49-19.85l-6.21-8.02
		c-0.07,0.07-0.15,0.14-0.23,0.21l0,0c-32.5,32.5-4.07,49.39,21.17,49.39h31.95c21.75,0,39.37-17.63,39.37-39.37
		S330.95,171.25,309.2,171.25z"/>
	<g>
		<defs>
			<path id="SVGID_00000175315813757372259830000002357940701104009904_" d="M309.2,171.25c-3.59,0-7.07,0.49-10.37,1.39
				c-8.7-18.22-27.29-30.81-48.83-30.81c-21.54,0-40.13,12.59-48.83,30.81c-3.31-0.9-6.78-1.39-10.37-1.39
				c-21.75,0-39.37,17.63-39.37,39.37c0,0.61,0.02,1.21,0.05,1.81c1.61,33.1,43.58,32.95,90.16-13.04c2.1-2.34,4.29-4.73,6.52-7.1
				c0,0,0,0,0,0h0h0l-7.82-6.06l-19.85-13.49c-0.32-0.21-0.36-0.66-0.09-0.93l2.18-2.19c0.45-0.46,1.13-0.63,1.82-0.47
				c0,0,27.82,7.55,35.92,10.83c10.27-9.62,22.83-17.63,24.41-16.05c1.67,1.67-6.5,14.01-16.11,24.23
				c3.28,7.78,10.98,36.2,10.98,36.2c0.16,0.69-0.02,1.37-0.47,1.82l-2.19,2.18c-0.27,0.27-0.72,0.23-0.93-0.09l-13.49-19.85
				l-6.21-8.02c-0.07,0.07-0.15,0.14-0.23,0.21l0,0c-32.5,32.5-4.07,49.39,21.17,49.39h31.95c21.75,0,39.37-17.63,39.37-39.37
				S330.95,171.25,309.2,171.25z"/>
		</defs>
		<clipPath id="SVGID_00000046305988561394973040000002794771568845768077_">
			<use xlink:href="#SVGID_00000175315813757372259830000002357940701104009904_"  style="overflow:visible;"/>
		</clipPath>
		
			<ellipse transform="matrix(0.1636 -0.9865 0.9865 0.1636 6.9124 483.0221)" style="clip-path:url(#SVGID_00000046305988561394973040000002794771568845768077_);fill:#00D6EE;" cx="288.33" cy="237.43" rx="51.78" ry="51.78"/>
		
			<circle style="clip-path:url(#SVGID_00000046305988561394973040000002794771568845768077_);fill:#00D6EE;" cx="192.95" cy="231.38" r="47.92"/>
	</g>
</g>
</svg>
